<svg xmlns="http://www.w3.org/2000/svg" xmlns:xlink="http://www.w3.org/1999/xlink" width="500" zoomAndPan="magnify" viewBox="0 0 375 374.999991" height="500" preserveAspectRatio="xMidYMid meet" version="1.0"><defs><clipPath id="dbf298bb71"><path d="M 75 0 L 300 0 C 341.421875 0 375 33.578125 375 75 L 375 300 C 375 341.421875 341.421875 375 300 375 L 75 375 C 33.578125 375 0 341.421875 0 300 L 0 75 C 0 33.578125 33.578125 0 75 0 " clip-rule="nonzero"/></clipPath><clipPath id="ab8ff335d3"><path d="M 77 56.335938 L 296 56.335938 L 296 318.835938 L 77 318.835938 Z M 77 56.335938 " clip-rule="nonzero"/></clipPath></defs><g clip-path="url(#dbf298bb71)"><path fill="#e66b50" d="M 0 0 L 374.414062 0 L 374.414062 374.414062 L 0 374.414062 Z M 0 0 " fill-opacity="1" fill-rule="nonzero"/></g><g clip-path="url(#ab8ff335d3)"><path fill="#ffffff" d="M 281.886719 75.28125 C 277.5 95.707031 266.609375 113.566406 252.992188 129.207031 C 254.035156 126.757812 254.726562 124.214844 255.066406 121.574219 C 255.402344 118.9375 255.378906 116.300781 254.988281 113.667969 C 255.300781 112.773438 255.722656 111.339844 256.328125 110.605469 C 266.738281 95.125 267.46875 73.757812 262.777344 60.75 C 262.589844 60.09375 262.289062 59.496094 261.886719 58.945312 C 261.480469 58.398438 260.992188 57.9375 260.421875 57.566406 C 259.851562 57.191406 259.230469 56.929688 258.566406 56.777344 C 257.902344 56.628906 257.234375 56.59375 256.558594 56.683594 C 255.875 56.753906 255.226562 56.9375 254.609375 57.234375 C 253.996094 57.535156 253.449219 57.929688 252.972656 58.421875 C 252.496094 58.910156 252.117188 59.46875 251.835938 60.09375 C 251.558594 60.71875 251.394531 61.371094 251.34375 62.054688 C 248.222656 100.84375 227.210938 120.539062 200.136719 144.070312 C 203.226562 122.894531 205.757812 104.238281 207.300781 92.617188 C 207.386719 91.953125 207.386719 91.292969 207.296875 90.628906 C 207.203125 89.964844 207.027344 89.324219 206.765625 88.710938 C 206.503906 88.09375 206.164062 87.523438 205.746094 87 C 205.332031 86.472656 204.851562 86.015625 204.3125 85.617188 C 203.773438 85.222656 203.1875 84.90625 202.5625 84.664062 C 201.9375 84.425781 201.292969 84.273438 200.625 84.207031 C 199.957031 84.144531 199.292969 84.167969 198.632812 84.28125 C 197.972656 84.394531 197.339844 84.589844 196.734375 84.875 C 172.417969 96.867188 152.097656 111.128906 146.261719 126.9375 C 144.246094 124.855469 141.984375 123.089844 139.472656 121.640625 C 139.058594 121.398438 138.625 121.203125 138.171875 121.046875 C 137.71875 120.894531 137.257812 120.785156 136.78125 120.71875 C 136.308594 120.65625 135.832031 120.636719 135.355469 120.667969 C 134.878906 120.695312 134.40625 120.769531 133.945312 120.890625 C 133.484375 121.011719 133.035156 121.175781 132.605469 121.382812 C 132.175781 121.59375 131.769531 121.839844 131.386719 122.128906 C 131.003906 122.414062 130.652344 122.738281 130.332031 123.09375 C 130.015625 123.449219 129.734375 123.832031 129.488281 124.246094 C 126.988281 128.421875 125.078125 133.351562 125.5 138.386719 C 127.726562 172.898438 132.101562 218.511719 134.527344 242.777344 C 134.171875 243.242188 133.882812 243.746094 133.660156 244.289062 C 133.433594 244.828125 133.277344 245.390625 133.191406 245.96875 C 133.109375 246.550781 133.097656 247.128906 133.160156 247.714844 C 133.21875 248.296875 133.351562 248.863281 133.558594 249.410156 C 130.640625 251.226562 126.589844 253.789062 121.941406 256.867188 C 116.636719 250.78125 106.984375 257.335938 110.726562 264.542969 C 105.625 268.148438 100.878906 271.683594 96.585938 275.074219 C 92.109375 269.550781 83.175781 273.953125 84.808594 280.875 C 85.066406 281.960938 85.550781 283.890625 86.246094 286.304688 C 77.175781 295.046875 77.46875 303.738281 78.46875 308.253906 L 80.742188 317.203125 C 80.804688 317.433594 80.902344 317.652344 81.039062 317.851562 C 81.171875 318.050781 81.339844 318.21875 81.535156 318.359375 C 81.730469 318.5 81.945312 318.601562 82.179688 318.667969 C 82.410156 318.730469 82.648438 318.753906 82.886719 318.734375 C 92.632812 317.964844 102.308594 316.683594 111.917969 314.890625 C 121.527344 313.097656 131.015625 310.800781 140.378906 308.003906 C 149.746094 305.207031 158.9375 301.921875 167.953125 298.152344 C 176.972656 294.378906 185.765625 290.144531 194.332031 285.441406 C 194.703125 285.238281 194.984375 284.949219 195.175781 284.570312 C 195.367188 284.191406 195.433594 283.792969 195.375 283.375 C 193.347656 271.378906 192.464844 268.390625 187.144531 260.375 C 193.84375 256.558594 197.121094 247.535156 194.253906 240.214844 C 196.695312 232.851562 203.214844 220.511719 220.070312 215.457031 C 234.285156 211.050781 244.300781 204.160156 244.027344 192.222656 C 260.992188 185.074219 261.855469 171.660156 261.691406 167.523438 C 272.117188 159.015625 275.519531 149.722656 276.527344 143.347656 C 277.257812 138.863281 279.015625 134.828125 281.804688 131.242188 C 298.019531 110.265625 296.992188 89.050781 293.277344 74.945312 C 291.800781 69.023438 283.03125 69.300781 281.886719 75.28125 Z M 94.726562 298.125 C 92.253906 292.21875 90.269531 286.152344 88.777344 279.921875 C 88.699219 279.585938 88.6875 279.242188 88.746094 278.898438 C 88.800781 278.558594 88.917969 278.238281 89.101562 277.941406 C 89.28125 277.644531 89.511719 277.394531 89.792969 277.1875 C 90.070312 276.980469 90.378906 276.835938 90.71875 276.75 C 91.054688 276.667969 91.394531 276.648438 91.742188 276.699219 C 92.085938 276.75 92.40625 276.859375 92.707031 277.035156 C 93.007812 277.210938 93.261719 277.4375 93.472656 277.714844 C 93.683594 277.992188 93.835938 278.296875 93.925781 278.632812 C 95.105469 283.035156 96.429688 287.121094 97.730469 290.753906 C 97.730469 290.753906 98.730469 295.34375 94.726562 298.125 Z M 106.457031 301.402344 C 104.160156 296.355469 102.136719 291.203125 100.390625 285.941406 C 103.929688 283.851562 109.929688 280.339844 116.800781 276.445312 C 119.828125 282.835938 123.007812 290.402344 124.765625 297.121094 C 118.175781 298.847656 111.992188 300.257812 106.457031 301.402344 Z M 126.996094 290.394531 C 123.449219 279.957031 117.804688 268.96875 114.339844 262.644531 C 114.167969 262.332031 114.0625 262 114.019531 261.648438 C 113.976562 261.296875 114 260.949219 114.09375 260.605469 C 114.183594 260.265625 114.335938 259.949219 114.550781 259.667969 C 114.761719 259.382812 115.019531 259.148438 115.324219 258.964844 C 115.625 258.78125 115.953125 258.660156 116.300781 258.601562 C 116.652344 258.542969 117 258.550781 117.347656 258.628906 C 117.695312 258.703125 118.015625 258.84375 118.308594 259.042969 C 118.601562 259.242188 118.84375 259.488281 119.042969 259.785156 C 123.269531 266.242188 126.796875 273.058594 129.628906 280.234375 C 130.285156 282.109375 131.351562 286.867188 126.996094 290.394531 Z M 138.367188 293.253906 C 136.066406 285.058594 133.042969 277.136719 129.300781 269.492188 C 133.910156 266.988281 138.09375 264.78125 141.777344 262.921875 C 145.75 270.203125 149.703125 279.246094 151.582031 288.851562 C 147.117188 290.457031 142.695312 291.921875 138.367188 293.253906 Z M 153.445312 279.675781 L 153.445312 279.679688 C 149.261719 266.371094 142.132812 254.9375 137.71875 248.652344 C 135.679688 245.777344 139.789062 242.378906 142.234375 244.933594 C 143.292969 246.035156 144.574219 247.46875 145.9375 249.132812 C 153.175781 257.933594 162.707031 273.121094 153.445312 279.675781 Z M 146.980469 232.0625 C 145.605469 211.394531 139.492188 132.527344 157.164062 116.933594 C 160.183594 114.152344 191.4375 82.40625 193.949219 103.511719 C 195.589844 118.203125 181.792969 191.625 181.792969 191.625 L 181.804688 191.617188 C 175.820312 198.363281 170.996094 205.859375 167.332031 214.101562 L 167.332031 214.097656 C 157.679688 237.863281 146.84375 232.464844 146.980469 232.0625 Z M 278.617188 128.683594 C 277.15625 130.257812 249.835938 159.351562 211.707031 180.617188 C 196.785156 188.828125 184.105469 201.609375 178.164062 217.050781 C 177.238281 219.527344 181 221.011719 181.980469 218.5 C 187.59375 203.949219 199.613281 191.929688 213.699219 184.179688 C 227.992188 176.105469 241.492188 166.878906 254.210938 156.5 C 253.617188 168.179688 242.609375 174.859375 241.742188 175.367188 C 234.988281 178.941406 227.027344 182.824219 217.683594 187.613281 C 212.648438 190.199219 203.28125 194.117188 193.855469 209.195312 C 192.457031 211.4375 196.082031 213.34375 197.5 211.046875 C 209.875 192.339844 222.386719 190.949219 236.359375 182.738281 C 232.753906 190 224.246094 194.890625 224.246094 194.890625 L 224.253906 194.890625 C 218.386719 197.945312 200.039062 206.898438 190.40625 231.320312 C 190.40625 231.320312 183.160156 228.179688 175.785156 235.449219 C 171.453125 239.058594 170.492188 246.941406 176.746094 249.492188 C 176.996094 249.601562 177.253906 249.65625 177.527344 249.660156 C 177.796875 249.667969 178.058594 249.621094 178.308594 249.519531 C 178.5625 249.421875 178.785156 249.277344 178.980469 249.089844 C 179.175781 248.902344 179.328125 248.683594 179.4375 248.4375 C 180.546875 245.082031 175.703125 246.191406 176.386719 242.25 C 176.523438 241.558594 176.765625 240.902344 177.109375 240.28125 C 177.453125 239.664062 177.882812 239.113281 178.398438 238.628906 C 178.914062 238.144531 179.492188 237.75 180.132812 237.445312 C 180.773438 237.144531 181.441406 236.945312 182.144531 236.851562 C 187.089844 236.253906 189.824219 240.464844 190.242188 241.171875 C 191.054688 243.125 191.355469 245.15625 191.144531 247.261719 C 190.328125 257.40625 177.542969 262.355469 170.105469 255.4375 C 162.617188 250.207031 158.792969 210.539062 202.554688 178.652344 C 207.191406 175.332031 212.082031 171.734375 217.070312 167.871094 C 245.746094 145.667969 277.878906 114.582031 285.886719 76.109375 C 285.921875 75.910156 285.992188 75.722656 286.09375 75.546875 C 286.195312 75.371094 286.324219 75.21875 286.480469 75.089844 C 286.636719 74.960938 286.808594 74.859375 287 74.792969 C 287.191406 74.726562 287.386719 74.691406 287.589844 74.695312 C 287.789062 74.679688 287.984375 74.703125 288.171875 74.757812 C 288.363281 74.8125 288.539062 74.902344 288.699219 75.019531 C 288.855469 75.136719 288.988281 75.28125 289.097656 75.445312 C 289.207031 75.613281 289.28125 75.792969 289.324219 75.988281 C 292.804688 89.1875 293.765625 109.042969 278.617188 128.683594 Z M 278.617188 128.683594 " fill-opacity="1" fill-rule="nonzero"/></g></svg>