<svg xmlns="http://www.w3.org/2000/svg" xmlns:xlink="http://www.w3.org/1999/xlink" width="1130" zoomAndPan="magnify" viewBox="0 0 847.5 187.499995" height="250" preserveAspectRatio="xMidYMid meet" version="1.0"><defs><g/><clipPath id="3501bae194"><path d="M 1 0 L 157 0 L 157 187 L 1 187 Z M 1 0 " clip-rule="nonzero"/></clipPath></defs><g fill="#e66b50" fill-opacity="1"><g transform="translate(217.401207, 148.531413)"><g><path d="M 110.59375 -109.5 L 110.59375 0 L 94.953125 0 L 94.953125 -48.796875 L 32.0625 -48.796875 L 32.0625 0 L 16.421875 0 L 16.421875 -109.5 L 32.0625 -109.5 L 32.0625 -62.40625 L 94.953125 -62.40625 L 94.953125 -109.5 Z M 110.59375 -109.5 "/></g></g></g><g fill="#e66b50" fill-opacity="1"><g transform="translate(344.40414, 148.531413)"><g><path d="M 89.15625 -40.984375 C 89.15625 -39.835938 89.050781 -38.328125 88.84375 -36.453125 L 21.59375 -36.453125 C 22.53125 -29.148438 25.734375 -23.28125 31.203125 -18.84375 C 36.679688 -14.414062 43.488281 -12.203125 51.625 -12.203125 C 61.53125 -12.203125 69.503906 -15.539062 75.546875 -22.21875 L 83.84375 -12.515625 C 80.09375 -8.128906 75.425781 -4.789062 69.84375 -2.5 C 64.257812 -0.207031 58.03125 0.9375 51.15625 0.9375 C 42.394531 0.9375 34.625 -0.859375 27.84375 -4.453125 C 21.0625 -8.054688 15.816406 -13.085938 12.109375 -19.546875 C 8.410156 -26.015625 6.5625 -33.316406 6.5625 -41.453125 C 6.5625 -49.484375 8.359375 -56.726562 11.953125 -63.1875 C 15.554688 -69.65625 20.515625 -74.6875 26.828125 -78.28125 C 33.140625 -81.882812 40.253906 -83.6875 48.171875 -83.6875 C 56.097656 -83.6875 63.164062 -81.882812 69.375 -78.28125 C 75.582031 -74.6875 80.429688 -69.65625 83.921875 -63.1875 C 87.410156 -56.726562 89.15625 -49.328125 89.15625 -40.984375 Z M 48.171875 -71.015625 C 40.984375 -71.015625 34.960938 -68.820312 30.109375 -64.4375 C 25.265625 -60.0625 22.425781 -54.328125 21.59375 -47.234375 L 74.765625 -47.234375 C 73.929688 -54.222656 71.085938 -59.929688 66.234375 -64.359375 C 61.390625 -68.796875 55.367188 -71.015625 48.171875 -71.015625 Z M 48.171875 -71.015625 "/></g></g></g><g fill="#e66b50" fill-opacity="1"><g transform="translate(440.125575, 148.531413)"><g><path d="M 28.625 -68.984375 C 31.226562 -73.773438 35.082031 -77.421875 40.1875 -79.921875 C 45.300781 -82.429688 51.507812 -83.6875 58.8125 -83.6875 L 58.8125 -69.140625 C 57.976562 -69.242188 56.832031 -69.296875 55.375 -69.296875 C 47.238281 -69.296875 40.847656 -66.867188 36.203125 -62.015625 C 31.566406 -57.171875 29.25 -50.265625 29.25 -41.296875 L 29.25 0 L 14.234375 0 L 14.234375 -82.90625 L 28.625 -82.90625 Z M 28.625 -68.984375 "/></g></g></g><g fill="#e66b50" fill-opacity="1"><g transform="translate(504.252665, 148.531413)"><g><path d="M 117.9375 -83.6875 C 128.363281 -83.6875 136.628906 -80.660156 142.734375 -74.609375 C 148.835938 -68.566406 151.890625 -59.597656 151.890625 -47.703125 L 151.890625 0 L 136.875 0 L 136.875 -45.984375 C 136.875 -54.015625 135.019531 -60.0625 131.3125 -64.125 C 127.613281 -68.195312 122.320312 -70.234375 115.4375 -70.234375 C 107.820312 -70.234375 101.769531 -67.859375 97.28125 -63.109375 C 92.800781 -58.367188 90.5625 -51.566406 90.5625 -42.703125 L 90.5625 0 L 75.546875 0 L 75.546875 -45.984375 C 75.546875 -54.015625 73.695312 -60.0625 70 -64.125 C 66.300781 -68.195312 61.007812 -70.234375 54.125 -70.234375 C 46.507812 -70.234375 40.457031 -67.859375 35.96875 -63.109375 C 31.488281 -58.367188 29.25 -51.566406 29.25 -42.703125 L 29.25 0 L 14.234375 0 L 14.234375 -82.90625 L 28.625 -82.90625 L 28.625 -70.546875 C 31.644531 -74.816406 35.601562 -78.070312 40.5 -80.3125 C 45.40625 -82.5625 50.988281 -83.6875 57.25 -83.6875 C 63.71875 -83.6875 69.453125 -82.378906 74.453125 -79.765625 C 79.460938 -77.160156 83.320312 -73.359375 86.03125 -68.359375 C 89.15625 -73.148438 93.507812 -76.898438 99.09375 -79.609375 C 104.675781 -82.328125 110.957031 -83.6875 117.9375 -83.6875 Z M 117.9375 -83.6875 "/></g></g></g><g fill="#e66b50" fill-opacity="1"><g transform="translate(669.57545, 148.531413)"><g><path d="M 89.15625 -40.984375 C 89.15625 -39.835938 89.050781 -38.328125 88.84375 -36.453125 L 21.59375 -36.453125 C 22.53125 -29.148438 25.734375 -23.28125 31.203125 -18.84375 C 36.679688 -14.414062 43.488281 -12.203125 51.625 -12.203125 C 61.53125 -12.203125 69.503906 -15.539062 75.546875 -22.21875 L 83.84375 -12.515625 C 80.09375 -8.128906 75.425781 -4.789062 69.84375 -2.5 C 64.257812 -0.207031 58.03125 0.9375 51.15625 0.9375 C 42.394531 0.9375 34.625 -0.859375 27.84375 -4.453125 C 21.0625 -8.054688 15.816406 -13.085938 12.109375 -19.546875 C 8.410156 -26.015625 6.5625 -33.316406 6.5625 -41.453125 C 6.5625 -49.484375 8.359375 -56.726562 11.953125 -63.1875 C 15.554688 -69.65625 20.515625 -74.6875 26.828125 -78.28125 C 33.140625 -81.882812 40.253906 -83.6875 48.171875 -83.6875 C 56.097656 -83.6875 63.164062 -81.882812 69.375 -78.28125 C 75.582031 -74.6875 80.429688 -69.65625 83.921875 -63.1875 C 87.410156 -56.726562 89.15625 -49.328125 89.15625 -40.984375 Z M 48.171875 -71.015625 C 40.984375 -71.015625 34.960938 -68.820312 30.109375 -64.4375 C 25.265625 -60.0625 22.425781 -54.328125 21.59375 -47.234375 L 74.765625 -47.234375 C 73.929688 -54.222656 71.085938 -59.929688 66.234375 -64.359375 C 61.390625 -68.796875 55.367188 -71.015625 48.171875 -71.015625 Z M 48.171875 -71.015625 "/></g></g></g><g fill="#e66b50" fill-opacity="1"><g transform="translate(765.296896, 148.531413)"><g><path d="M 38.015625 0.9375 C 31.234375 0.9375 24.710938 0.0234375 18.453125 -1.796875 C 12.203125 -3.617188 7.300781 -5.941406 3.75 -8.765625 L 10.015625 -20.640625 C 13.660156 -18.035156 18.085938 -15.953125 23.296875 -14.390625 C 28.515625 -12.828125 33.785156 -12.046875 39.109375 -12.046875 C 52.242188 -12.046875 58.8125 -15.800781 58.8125 -23.3125 C 58.8125 -25.8125 57.925781 -27.789062 56.15625 -29.25 C 54.382812 -30.707031 52.164062 -31.773438 49.5 -32.453125 C 46.84375 -33.128906 43.066406 -33.882812 38.171875 -34.71875 C 31.492188 -35.769531 26.039062 -36.972656 21.8125 -38.328125 C 17.59375 -39.679688 13.96875 -41.972656 10.9375 -45.203125 C 7.914062 -48.441406 6.40625 -52.976562 6.40625 -58.8125 C 6.40625 -66.320312 9.535156 -72.34375 15.796875 -76.875 C 22.054688 -81.414062 30.453125 -83.6875 40.984375 -83.6875 C 46.503906 -83.6875 52.03125 -83.007812 57.5625 -81.65625 C 63.09375 -80.300781 67.628906 -78.472656 71.171875 -76.171875 L 64.765625 -64.296875 C 57.984375 -68.671875 50.003906 -70.859375 40.828125 -70.859375 C 34.460938 -70.859375 29.609375 -69.816406 26.265625 -67.734375 C 22.929688 -65.648438 21.265625 -62.882812 21.265625 -59.4375 C 21.265625 -56.726562 22.203125 -54.59375 24.078125 -53.03125 C 25.960938 -51.46875 28.285156 -50.316406 31.046875 -49.578125 C 33.804688 -48.847656 37.691406 -48.015625 42.703125 -47.078125 C 49.378906 -45.929688 54.773438 -44.707031 58.890625 -43.40625 C 63.015625 -42.101562 66.535156 -39.882812 69.453125 -36.75 C 72.367188 -33.625 73.828125 -29.25 73.828125 -23.625 C 73.828125 -16.113281 70.617188 -10.140625 64.203125 -5.703125 C 57.796875 -1.273438 49.066406 0.9375 38.015625 0.9375 Z M 38.015625 0.9375 "/></g></g></g><g clip-path="url(#3501bae194)"><path fill="#e66b50" d="M 147.125 13.503906 C 143.992188 28.066406 136.21875 40.792969 126.5 51.941406 C 127.242188 50.199219 127.738281 48.386719 127.980469 46.503906 C 128.222656 44.625 128.203125 42.746094 127.925781 40.867188 C 128.148438 40.230469 128.449219 39.207031 128.878906 38.683594 C 136.3125 27.648438 136.832031 12.417969 133.484375 3.148438 C 133.347656 2.679688 133.136719 2.253906 132.847656 1.863281 C 132.558594 1.472656 132.210938 1.144531 131.800781 0.878906 C 131.394531 0.613281 130.953125 0.425781 130.480469 0.316406 C 130.003906 0.207031 129.527344 0.1875 129.042969 0.25 C 128.558594 0.296875 128.09375 0.429688 127.65625 0.640625 C 127.214844 0.855469 126.824219 1.136719 126.484375 1.488281 C 126.144531 1.835938 125.875 2.234375 125.675781 2.679688 C 125.476562 3.125 125.359375 3.589844 125.324219 4.078125 C 123.097656 31.726562 108.097656 45.765625 88.773438 62.539062 C 90.976562 47.441406 92.785156 34.144531 93.886719 25.863281 C 93.949219 25.390625 93.949219 24.917969 93.882812 24.445312 C 93.820312 23.972656 93.691406 23.515625 93.503906 23.078125 C 93.316406 22.636719 93.074219 22.230469 92.777344 21.855469 C 92.480469 21.484375 92.140625 21.15625 91.753906 20.875 C 91.367188 20.589844 90.953125 20.363281 90.503906 20.195312 C 90.058594 20.023438 89.597656 19.914062 89.121094 19.867188 C 88.644531 19.820312 88.171875 19.839844 87.703125 19.917969 C 87.230469 20 86.777344 20.140625 86.34375 20.34375 C 68.992188 28.890625 54.484375 39.054688 50.320312 50.324219 C 48.882812 48.839844 47.265625 47.582031 45.472656 46.550781 C 45.179688 46.378906 44.871094 46.238281 44.546875 46.128906 C 44.222656 46.019531 43.894531 45.941406 43.554688 45.894531 C 43.214844 45.847656 42.875 45.835938 42.535156 45.855469 C 42.195312 45.875 41.859375 45.929688 41.527344 46.015625 C 41.199219 46.101562 40.878906 46.21875 40.574219 46.367188 C 40.265625 46.515625 39.976562 46.691406 39.703125 46.898438 C 39.429688 47.101562 39.179688 47.332031 38.953125 47.585938 C 38.722656 47.839844 38.523438 48.113281 38.347656 48.40625 C 36.566406 51.382812 35.199219 54.898438 35.503906 58.484375 C 37.089844 83.085938 40.214844 115.601562 41.945312 132.894531 C 41.433594 133.574219 41.113281 134.332031 40.992188 135.171875 C 40.867188 136.011719 40.957031 136.832031 41.253906 137.625 C 39.167969 138.917969 36.28125 140.746094 32.960938 142.941406 C 29.175781 138.601562 22.285156 143.273438 24.957031 148.410156 C 21.3125 150.984375 17.925781 153.5 14.863281 155.917969 C 11.667969 151.980469 5.292969 155.121094 6.457031 160.050781 C 6.640625 160.828125 6.984375 162.203125 7.480469 163.921875 C 1.007812 170.15625 1.21875 176.351562 1.933594 179.570312 L 3.554688 185.949219 C 3.644531 186.292969 3.832031 186.566406 4.121094 186.773438 C 4.410156 186.980469 4.734375 187.066406 5.085938 187.039062 C 19.035156 185.941406 32.714844 183.390625 46.121094 179.390625 C 59.527344 175.390625 72.363281 170.03125 84.632812 163.308594 C 84.894531 163.164062 85.097656 162.957031 85.234375 162.6875 C 85.367188 162.417969 85.417969 162.132812 85.375 161.835938 C 83.925781 153.285156 83.296875 151.15625 79.5 145.441406 C 84.28125 142.722656 86.621094 136.289062 84.574219 131.070312 C 86.316406 125.820312 90.972656 117.027344 103 113.425781 C 113.148438 110.28125 120.296875 105.371094 120.101562 96.863281 C 132.210938 91.765625 132.828125 82.203125 132.707031 79.257812 C 140.148438 73.191406 142.578125 66.566406 143.296875 62.023438 C 143.820312 58.828125 145.074219 55.949219 147.066406 53.394531 C 158.640625 38.441406 157.90625 23.320312 155.253906 13.265625 C 154.199219 9.042969 147.941406 9.242188 147.125 13.503906 Z M 13.535156 172.351562 C 11.769531 168.140625 10.355469 163.8125 9.292969 159.375 C 9.234375 159.132812 9.226562 158.890625 9.265625 158.644531 C 9.304688 158.402344 9.390625 158.171875 9.519531 157.960938 C 9.648438 157.75 9.8125 157.570312 10.015625 157.425781 C 10.214844 157.277344 10.433594 157.175781 10.675781 157.113281 C 10.914062 157.054688 11.160156 157.042969 11.40625 157.078125 C 11.652344 157.113281 11.878906 157.191406 12.09375 157.316406 C 12.308594 157.441406 12.492188 157.605469 12.640625 157.800781 C 12.792969 158 12.898438 158.214844 12.964844 158.457031 C 13.808594 161.59375 14.753906 164.507812 15.679688 167.09375 C 15.679688 167.09375 16.394531 170.367188 13.535156 172.351562 Z M 21.910156 174.683594 C 20.269531 171.085938 18.828125 167.414062 17.578125 163.664062 C 20.105469 162.175781 24.386719 159.671875 29.289062 156.894531 C 31.453125 161.453125 33.722656 166.84375 34.976562 171.632812 C 30.273438 172.863281 25.859375 173.871094 21.910156 174.683594 Z M 36.566406 166.839844 C 34.035156 159.398438 30.007812 151.566406 27.535156 147.058594 C 27.414062 146.835938 27.335938 146.601562 27.308594 146.347656 C 27.277344 146.097656 27.292969 145.851562 27.359375 145.605469 C 27.425781 145.363281 27.53125 145.140625 27.683594 144.9375 C 27.835938 144.734375 28.019531 144.566406 28.238281 144.4375 C 28.453125 144.304688 28.6875 144.21875 28.9375 144.175781 C 29.1875 144.136719 29.433594 144.140625 29.683594 144.195312 C 29.929688 144.25 30.15625 144.347656 30.367188 144.492188 C 30.578125 144.632812 30.75 144.808594 30.890625 145.019531 C 33.90625 149.621094 36.425781 154.480469 38.449219 159.597656 C 38.917969 160.933594 39.675781 164.324219 36.566406 166.839844 Z M 44.6875 168.875 C 43.042969 163.035156 40.886719 157.390625 38.214844 151.941406 C 41.503906 150.15625 44.488281 148.582031 47.121094 147.253906 C 49.953125 152.445312 52.773438 158.890625 54.117188 165.738281 C 50.929688 166.882812 47.773438 167.925781 44.6875 168.875 Z M 55.445312 159.199219 L 55.445312 159.203125 C 52.460938 149.714844 47.371094 141.566406 44.222656 137.085938 C 42.765625 135.035156 45.699219 132.613281 47.445312 134.433594 C 48.199219 135.21875 49.117188 136.242188 50.089844 137.425781 C 55.253906 143.699219 62.058594 154.527344 55.445312 159.199219 Z M 50.832031 125.257812 C 49.851562 110.527344 45.488281 54.308594 58.101562 43.195312 C 60.257812 41.210938 82.566406 18.585938 84.355469 33.625 C 85.527344 44.101562 75.679688 96.433594 75.679688 96.433594 L 75.691406 96.429688 C 71.417969 101.238281 67.972656 106.582031 65.359375 112.457031 C 58.472656 129.394531 50.738281 125.546875 50.832031 125.257812 Z M 144.789062 51.570312 C 143.746094 52.691406 124.246094 73.429688 97.035156 88.589844 C 86.382812 94.441406 77.332031 103.554688 73.089844 114.558594 C 72.429688 116.324219 75.113281 117.382812 75.816406 115.59375 C 79.820312 105.21875 88.398438 96.652344 98.453125 91.128906 C 108.65625 85.375 118.292969 78.796875 127.367188 71.398438 C 126.945312 79.722656 119.089844 84.484375 118.46875 84.847656 C 113.648438 87.394531 107.96875 90.160156 101.296875 93.578125 C 97.703125 95.417969 91.019531 98.210938 84.292969 108.960938 C 83.292969 110.558594 85.878906 111.917969 86.890625 110.28125 C 95.722656 96.945312 104.652344 95.953125 114.625 90.101562 C 112.054688 95.277344 105.980469 98.765625 105.980469 98.765625 L 105.988281 98.765625 C 101.800781 100.941406 88.703125 107.320312 81.828125 124.730469 C 81.828125 124.730469 76.65625 122.492188 71.394531 127.671875 C 68.300781 130.246094 67.613281 135.863281 72.078125 137.683594 C 72.257812 137.761719 72.441406 137.800781 72.636719 137.804688 C 72.828125 137.808594 73.015625 137.773438 73.195312 137.703125 C 73.375 137.632812 73.535156 137.53125 73.671875 137.398438 C 73.8125 137.261719 73.921875 137.109375 74 136.929688 C 74.792969 134.539062 71.332031 135.332031 71.820312 132.523438 C 71.921875 132.027344 72.089844 131.558594 72.335938 131.117188 C 72.582031 130.675781 72.890625 130.285156 73.257812 129.9375 C 73.625 129.59375 74.039062 129.3125 74.496094 129.097656 C 74.953125 128.882812 75.429688 128.738281 75.933594 128.671875 C 79.460938 128.246094 81.414062 131.25 81.710938 131.753906 C 82.292969 133.144531 82.507812 134.59375 82.355469 136.09375 C 81.773438 143.324219 72.648438 146.855469 67.339844 141.921875 C 61.996094 138.195312 59.265625 109.917969 90.5 87.1875 C 93.808594 84.820312 97.300781 82.257812 100.863281 79.503906 C 121.328125 63.675781 144.265625 41.519531 149.980469 14.09375 C 150.03125 13.800781 150.171875 13.558594 150.402344 13.367188 C 150.632812 13.175781 150.894531 13.082031 151.195312 13.085938 C 151.488281 13.066406 151.75 13.144531 151.984375 13.316406 C 152.21875 13.492188 152.367188 13.722656 152.429688 14.007812 C 154.914062 23.417969 155.601562 37.570312 144.789062 51.570312 Z M 144.789062 51.570312 " fill-opacity="1" fill-rule="nonzero"/></g></svg>