<svg xmlns="http://www.w3.org/2000/svg" xmlns:xlink="http://www.w3.org/1999/xlink" width="1100" zoomAndPan="magnify" viewBox="0 0 824.88 187.499995" height="250" preserveAspectRatio="xMidYMid meet" version="1.0"><defs><g/><clipPath id="7dea0981de"><path d="M 1.035156 0 L 157 0 L 157 187 L 1.035156 187 Z M 1.035156 0 " clip-rule="nonzero"/></clipPath></defs><g fill="#e66b50" fill-opacity="1"><g transform="translate(216.419068, 146.58955)"><g><path d="M 106.796875 -105.734375 L 106.796875 0 L 91.6875 0 L 91.6875 -47.125 L 30.96875 -47.125 L 30.96875 0 L 15.859375 0 L 15.859375 -105.734375 L 30.96875 -105.734375 L 30.96875 -60.265625 L 91.6875 -60.265625 L 91.6875 -105.734375 Z M 106.796875 -105.734375 "/></g></g></g><g fill="#e66b50" fill-opacity="1"><g transform="translate(339.063397, 146.58955)"><g><path d="M 86.09375 -39.578125 C 86.09375 -38.460938 85.992188 -37 85.796875 -35.1875 L 20.84375 -35.1875 C 21.75 -28.144531 24.84375 -22.484375 30.125 -18.203125 C 35.414062 -13.921875 41.988281 -11.78125 49.84375 -11.78125 C 59.40625 -11.78125 67.109375 -15.003906 72.953125 -21.453125 L 80.96875 -12.078125 C 77.34375 -7.847656 72.832031 -4.625 67.4375 -2.40625 C 62.050781 -0.195312 56.035156 0.90625 49.390625 0.90625 C 40.929688 0.90625 33.425781 -0.828125 26.875 -4.296875 C 20.332031 -7.773438 15.273438 -12.632812 11.703125 -18.875 C 8.128906 -25.125 6.34375 -32.175781 6.34375 -40.03125 C 6.34375 -47.78125 8.078125 -54.773438 11.546875 -61.015625 C 15.023438 -67.265625 19.8125 -72.125 25.90625 -75.59375 C 32 -79.070312 38.867188 -80.8125 46.515625 -80.8125 C 54.171875 -80.8125 60.992188 -79.070312 66.984375 -75.59375 C 72.984375 -72.125 77.664062 -67.265625 81.03125 -61.015625 C 84.40625 -54.773438 86.09375 -47.628906 86.09375 -39.578125 Z M 46.515625 -68.578125 C 39.566406 -68.578125 33.75 -66.460938 29.0625 -62.234375 C 24.382812 -58.003906 21.644531 -52.460938 20.84375 -45.609375 L 72.203125 -45.609375 C 71.390625 -52.359375 68.640625 -57.875 63.953125 -62.15625 C 59.273438 -66.4375 53.460938 -68.578125 46.515625 -68.578125 Z M 46.515625 -68.578125 "/></g></g></g><g fill="#e66b50" fill-opacity="1"><g transform="translate(431.499777, 146.58955)"><g><path d="M 27.640625 -66.609375 C 30.160156 -71.242188 33.882812 -74.769531 38.8125 -77.1875 C 43.75 -79.601562 49.742188 -80.8125 56.796875 -80.8125 L 56.796875 -66.765625 C 55.984375 -66.859375 54.875 -66.90625 53.46875 -66.90625 C 45.613281 -66.90625 39.445312 -64.5625 34.96875 -59.875 C 30.488281 -55.195312 28.25 -48.53125 28.25 -39.875 L 28.25 0 L 13.75 0 L 13.75 -80.0625 L 27.640625 -80.0625 Z M 27.640625 -66.609375 "/></g></g></g><g fill="#e66b50" fill-opacity="1"><g transform="translate(493.426095, 146.58955)"><g><path d="M 113.890625 -80.8125 C 123.960938 -80.8125 131.941406 -77.890625 137.828125 -72.046875 C 143.722656 -66.203125 146.671875 -57.539062 146.671875 -46.0625 L 146.671875 0 L 132.171875 0 L 132.171875 -44.40625 C 132.171875 -52.15625 130.378906 -57.992188 126.796875 -61.921875 C 123.222656 -65.847656 118.113281 -67.8125 111.46875 -67.8125 C 104.125 -67.8125 98.285156 -65.519531 93.953125 -60.9375 C 89.617188 -56.363281 87.453125 -49.796875 87.453125 -41.234375 L 87.453125 0 L 72.953125 0 L 72.953125 -44.40625 C 72.953125 -52.15625 71.164062 -57.992188 67.59375 -61.921875 C 64.019531 -65.847656 58.910156 -67.8125 52.265625 -67.8125 C 44.910156 -67.8125 39.066406 -65.519531 34.734375 -60.9375 C 30.410156 -56.363281 28.25 -49.796875 28.25 -41.234375 L 28.25 0 L 13.75 0 L 13.75 -80.0625 L 27.640625 -80.0625 L 27.640625 -68.125 C 30.554688 -72.25 34.378906 -75.394531 39.109375 -77.5625 C 43.847656 -79.726562 49.238281 -80.8125 55.28125 -80.8125 C 61.519531 -80.8125 67.054688 -79.550781 71.890625 -77.03125 C 76.734375 -74.507812 80.460938 -70.832031 83.078125 -66 C 86.097656 -70.632812 90.300781 -74.257812 95.6875 -76.875 C 101.070312 -79.5 107.140625 -80.8125 113.890625 -80.8125 Z M 113.890625 -80.8125 "/></g></g></g><g fill="#e66b50" fill-opacity="1"><g transform="translate(653.07518, 146.58955)"><g><path d="M 86.09375 -39.578125 C 86.09375 -38.460938 85.992188 -37 85.796875 -35.1875 L 20.84375 -35.1875 C 21.75 -28.144531 24.84375 -22.484375 30.125 -18.203125 C 35.414062 -13.921875 41.988281 -11.78125 49.84375 -11.78125 C 59.40625 -11.78125 67.109375 -15.003906 72.953125 -21.453125 L 80.96875 -12.078125 C 77.34375 -7.847656 72.832031 -4.625 67.4375 -2.40625 C 62.050781 -0.195312 56.035156 0.90625 49.390625 0.90625 C 40.929688 0.90625 33.425781 -0.828125 26.875 -4.296875 C 20.332031 -7.773438 15.273438 -12.632812 11.703125 -18.875 C 8.128906 -25.125 6.34375 -32.175781 6.34375 -40.03125 C 6.34375 -47.78125 8.078125 -54.773438 11.546875 -61.015625 C 15.023438 -67.265625 19.8125 -72.125 25.90625 -75.59375 C 32 -79.070312 38.867188 -80.8125 46.515625 -80.8125 C 54.171875 -80.8125 60.992188 -79.070312 66.984375 -75.59375 C 72.984375 -72.125 77.664062 -67.265625 81.03125 -61.015625 C 84.40625 -54.773438 86.09375 -47.628906 86.09375 -39.578125 Z M 46.515625 -68.578125 C 39.566406 -68.578125 33.75 -66.460938 29.0625 -62.234375 C 24.382812 -58.003906 21.644531 -52.460938 20.84375 -45.609375 L 72.203125 -45.609375 C 71.390625 -52.359375 68.640625 -57.875 63.953125 -62.15625 C 59.273438 -66.4375 53.460938 -68.578125 46.515625 -68.578125 Z M 46.515625 -68.578125 "/></g></g></g><g fill="#e66b50" fill-opacity="1"><g transform="translate(745.511571, 146.58955)"><g><path d="M 36.703125 0.90625 C 30.160156 0.90625 23.867188 0.0234375 17.828125 -1.734375 C 11.785156 -3.492188 7.050781 -5.734375 3.625 -8.453125 L 9.671875 -19.9375 C 13.191406 -17.414062 17.46875 -15.398438 22.5 -13.890625 C 27.539062 -12.378906 32.628906 -11.625 37.765625 -11.625 C 50.453125 -11.625 56.796875 -15.25 56.796875 -22.5 C 56.796875 -24.914062 55.9375 -26.828125 54.21875 -28.234375 C 52.507812 -29.648438 50.367188 -30.6875 47.796875 -31.34375 C 45.234375 -32 41.585938 -32.726562 36.859375 -33.53125 C 30.410156 -34.539062 25.144531 -35.695312 21.0625 -37 C 16.988281 -38.3125 13.488281 -40.523438 10.5625 -43.640625 C 7.644531 -46.765625 6.1875 -51.148438 6.1875 -56.796875 C 6.1875 -64.046875 9.207031 -69.859375 15.25 -74.234375 C 21.289062 -78.617188 29.398438 -80.8125 39.578125 -80.8125 C 44.910156 -80.8125 50.242188 -80.15625 55.578125 -78.84375 C 60.921875 -77.539062 65.300781 -75.78125 68.71875 -73.5625 L 62.53125 -62.078125 C 55.988281 -66.304688 48.285156 -68.421875 39.421875 -68.421875 C 33.273438 -68.421875 28.59375 -67.410156 25.375 -65.390625 C 22.15625 -63.378906 20.546875 -60.710938 20.546875 -57.390625 C 20.546875 -54.773438 21.453125 -52.710938 23.265625 -51.203125 C 25.078125 -49.691406 27.316406 -48.582031 29.984375 -47.875 C 32.648438 -47.175781 36.398438 -46.375 41.234375 -45.46875 C 47.679688 -44.351562 52.890625 -43.164062 56.859375 -41.90625 C 60.835938 -40.65625 64.238281 -38.519531 67.0625 -35.5 C 69.882812 -32.476562 71.296875 -28.25 71.296875 -22.8125 C 71.296875 -15.5625 68.195312 -9.796875 62 -5.515625 C 55.8125 -1.234375 47.378906 0.90625 36.703125 0.90625 Z M 36.703125 0.90625 "/></g></g></g><g clip-path="url(#7dea0981de)"><path fill="#e66b50" d="M 147.199219 13.496094 C 144.066406 28.046875 136.296875 40.769531 126.585938 51.914062 C 127.328125 50.167969 127.820312 48.355469 128.0625 46.476562 C 128.304688 44.597656 128.289062 42.71875 128.007812 40.84375 C 128.234375 40.203125 128.535156 39.183594 128.964844 38.660156 C 136.390625 27.632812 136.910156 12.410156 133.566406 3.144531 C 133.429688 2.679688 133.21875 2.25 132.929688 1.859375 C 132.640625 1.46875 132.292969 1.140625 131.882812 0.875 C 131.476562 0.609375 131.035156 0.425781 130.5625 0.316406 C 130.089844 0.207031 129.609375 0.1875 129.128906 0.25 C 128.640625 0.296875 128.179688 0.429688 127.738281 0.640625 C 127.300781 0.855469 126.910156 1.136719 126.570312 1.484375 C 126.230469 1.835938 125.960938 2.234375 125.761719 2.679688 C 125.5625 3.121094 125.445312 3.589844 125.410156 4.074219 C 123.183594 31.707031 108.191406 45.738281 88.882812 62.5 C 91.085938 47.414062 92.890625 34.125 93.992188 25.847656 C 94.054688 25.375 94.050781 24.902344 93.988281 24.429688 C 93.921875 23.957031 93.796875 23.5 93.609375 23.0625 C 93.421875 22.625 93.179688 22.21875 92.882812 21.84375 C 92.585938 21.46875 92.246094 21.144531 91.859375 20.859375 C 91.472656 20.578125 91.058594 20.351562 90.613281 20.183594 C 90.164062 20.011719 89.703125 19.902344 89.230469 19.855469 C 88.753906 19.808594 88.28125 19.828125 87.808594 19.90625 C 87.339844 19.988281 86.886719 20.128906 86.453125 20.332031 C 69.109375 28.875 54.613281 39.035156 50.449219 50.296875 C 49.011719 48.8125 47.398438 47.554688 45.609375 46.523438 C 45.3125 46.351562 45.003906 46.210938 44.679688 46.101562 C 44.359375 45.992188 44.027344 45.914062 43.6875 45.867188 C 43.351562 45.820312 43.011719 45.808594 42.671875 45.828125 C 42.328125 45.847656 41.996094 45.902344 41.664062 45.988281 C 41.335938 46.074219 41.015625 46.191406 40.707031 46.339844 C 40.402344 46.488281 40.109375 46.664062 39.839844 46.871094 C 39.566406 47.074219 39.316406 47.304688 39.089844 47.558594 C 38.859375 47.8125 38.660156 48.085938 38.484375 48.378906 C 36.703125 51.351562 35.339844 54.863281 35.640625 58.453125 C 37.226562 83.039062 40.347656 115.535156 42.078125 132.816406 C 41.566406 133.496094 41.25 134.253906 41.128906 135.09375 C 41.003906 135.933594 41.089844 136.75 41.386719 137.542969 C 39.304688 138.835938 36.417969 140.664062 33.101562 142.855469 C 29.316406 138.519531 22.433594 143.191406 25.101562 148.324219 C 21.460938 150.894531 18.078125 153.410156 15.015625 155.824219 C 11.820312 151.894531 5.449219 155.027344 6.613281 159.957031 C 6.796875 160.734375 7.140625 162.105469 7.636719 163.828125 C 1.167969 170.054688 1.378906 176.246094 2.089844 179.464844 L 3.714844 185.835938 C 3.800781 186.179688 3.988281 186.457031 4.277344 186.664062 C 4.566406 186.867188 4.890625 186.957031 5.242188 186.929688 C 19.183594 185.832031 32.855469 183.28125 46.253906 179.285156 C 59.652344 175.289062 72.480469 169.929688 84.742188 163.214844 C 85.007812 163.066406 85.207031 162.859375 85.34375 162.589844 C 85.476562 162.324219 85.527344 162.039062 85.484375 161.738281 C 84.039062 153.195312 83.410156 151.066406 79.613281 145.355469 C 84.394531 142.636719 86.730469 136.207031 84.683594 130.992188 C 86.425781 125.746094 91.078125 116.957031 103.101562 113.359375 C 113.238281 110.214844 120.382812 105.308594 120.1875 96.804688 C 132.292969 91.710938 132.90625 82.15625 132.789062 79.210938 C 140.226562 73.148438 142.65625 66.527344 143.375 61.988281 C 143.894531 58.792969 145.148438 55.917969 147.136719 53.363281 C 158.707031 38.417969 157.972656 23.304688 155.320312 13.257812 C 154.269531 9.039062 148.011719 9.238281 147.199219 13.496094 Z M 13.6875 172.25 C 11.925781 168.039062 10.507812 163.71875 9.445312 159.28125 C 9.390625 159.039062 9.382812 158.796875 9.421875 158.550781 C 9.460938 158.308594 9.546875 158.078125 9.675781 157.867188 C 9.804688 157.65625 9.96875 157.480469 10.167969 157.332031 C 10.367188 157.183594 10.589844 157.082031 10.828125 157.023438 C 11.070312 156.960938 11.3125 156.949219 11.558594 156.984375 C 11.804688 157.019531 12.035156 157.097656 12.246094 157.226562 C 12.460938 157.351562 12.644531 157.511719 12.792969 157.707031 C 12.945312 157.90625 13.050781 158.121094 13.117188 158.363281 C 13.960938 161.496094 14.902344 164.410156 15.832031 166.996094 C 15.832031 166.996094 16.546875 170.269531 13.6875 172.25 Z M 22.054688 174.582031 C 20.417969 170.988281 18.976562 167.316406 17.726562 163.566406 C 20.253906 162.082031 24.535156 159.578125 29.433594 156.804688 C 31.59375 161.355469 33.863281 166.746094 35.117188 171.53125 C 30.414062 172.761719 26.003906 173.769531 22.054688 174.582031 Z M 36.707031 166.742188 C 34.175781 159.304688 30.152344 151.476562 27.679688 146.972656 C 27.558594 146.75 27.480469 146.515625 27.449219 146.261719 C 27.421875 146.011719 27.4375 145.765625 27.503906 145.519531 C 27.566406 145.277344 27.675781 145.054688 27.828125 144.851562 C 27.980469 144.648438 28.164062 144.480469 28.378906 144.351562 C 28.597656 144.21875 28.828125 144.132812 29.078125 144.089844 C 29.328125 144.050781 29.578125 144.054688 29.824219 144.109375 C 30.070312 144.164062 30.300781 144.261719 30.507812 144.40625 C 30.71875 144.546875 30.894531 144.722656 31.035156 144.933594 C 34.046875 149.535156 36.566406 154.390625 38.585938 159.503906 C 39.054688 160.839844 39.8125 164.230469 36.707031 166.742188 Z M 44.820312 168.777344 C 43.175781 162.9375 41.019531 157.296875 38.351562 151.851562 C 41.636719 150.066406 44.625 148.496094 47.253906 147.167969 C 50.085938 152.355469 52.902344 158.796875 54.246094 165.640625 C 51.0625 166.785156 47.90625 167.828125 44.820312 168.777344 Z M 55.574219 159.105469 L 55.574219 159.109375 C 52.589844 149.625 47.503906 141.480469 44.355469 137.003906 C 42.902344 134.957031 45.832031 132.535156 47.574219 134.355469 C 48.332031 135.140625 49.246094 136.164062 50.21875 137.34375 C 55.382812 143.617188 62.183594 154.4375 55.574219 159.105469 Z M 50.964844 125.183594 C 49.984375 110.460938 45.621094 54.277344 58.226562 43.171875 C 60.382812 41.1875 82.675781 18.574219 84.464844 33.605469 C 85.636719 44.074219 75.796875 96.378906 75.796875 96.378906 L 75.804688 96.371094 C 71.535156 101.179688 68.09375 106.519531 65.480469 112.390625 C 58.597656 129.316406 50.867188 125.472656 50.964844 125.183594 Z M 144.867188 51.539062 C 143.824219 52.660156 124.332031 73.386719 97.136719 88.535156 C 86.492188 94.386719 77.445312 103.492188 73.207031 114.492188 C 72.546875 116.257812 75.230469 117.3125 75.929688 115.523438 C 79.933594 105.160156 88.507812 96.597656 98.554688 91.074219 C 108.75 85.324219 118.382812 78.75 127.453125 71.355469 C 127.03125 79.675781 119.179688 84.433594 118.5625 84.796875 C 113.742188 87.34375 108.0625 90.109375 101.398438 93.523438 C 97.808594 95.363281 91.125 98.15625 84.402344 108.898438 C 83.402344 110.492188 85.988281 111.851562 87 110.214844 C 95.828125 96.886719 104.753906 95.898438 114.71875 90.050781 C 112.148438 95.222656 106.078125 98.707031 106.078125 98.707031 L 106.085938 98.707031 C 101.898438 100.882812 88.8125 107.257812 81.941406 124.660156 C 81.941406 124.660156 76.773438 122.421875 71.511719 127.597656 C 68.417969 130.171875 67.734375 135.785156 72.195312 137.601562 C 72.375 137.679688 72.558594 137.71875 72.753906 137.722656 C 72.945312 137.726562 73.132812 137.691406 73.3125 137.621094 C 73.492188 137.550781 73.652344 137.449219 73.789062 137.316406 C 73.929688 137.183594 74.039062 137.027344 74.113281 136.851562 C 74.90625 134.460938 71.453125 135.253906 71.9375 132.445312 C 72.039062 131.949219 72.210938 131.480469 72.453125 131.042969 C 72.699219 130.601562 73.007812 130.207031 73.375 129.863281 C 73.742188 129.515625 74.15625 129.238281 74.613281 129.019531 C 75.066406 128.804688 75.546875 128.664062 76.046875 128.597656 C 79.574219 128.171875 81.523438 131.171875 81.824219 131.675781 C 82.402344 133.066406 82.617188 134.511719 82.464844 136.011719 C 81.882812 143.238281 72.765625 146.765625 67.460938 141.839844 C 62.117188 138.113281 59.390625 109.851562 90.605469 87.136719 C 93.914062 84.773438 97.402344 82.210938 100.960938 79.457031 C 121.417969 63.640625 144.339844 41.496094 150.050781 14.085938 C 150.101562 13.792969 150.242188 13.550781 150.472656 13.359375 C 150.703125 13.167969 150.96875 13.074219 151.265625 13.078125 C 151.558594 13.058594 151.820312 13.136719 152.054688 13.308594 C 152.289062 13.484375 152.4375 13.714844 152.5 14 C 154.984375 23.402344 155.671875 37.546875 144.867188 51.539062 Z M 144.867188 51.539062 " fill-opacity="1" fill-rule="nonzero"/></g></svg>